<svg xmlns="http://www.w3.org/2000/svg"  viewBox="0 0 48 48" width="24px" height="24px"><path fill="#3dd9eb" d="M20,37c2.761,0,5-2.239,5-5v-1v-1V6.07h5.208c-0.031-0.14-0.072-0.276-0.097-0.419H30.11 c-0.044-0.248-0.076-0.495-0.099-0.746V4.07H23V28v1v1c0,2.761-2.239,5-5,5c-0.864,0-1.665-0.239-2.375-0.625 C16.473,35.931,18.103,37,20,37z"/><path fill="#f55376" d="M33.718,11.407c-0.797-1.094-1.364-2.367-1.607-3.756H32.11c-0.044-0.248-0.076-0.495-0.099-0.746 V6.07h-1.803C30.699,8.252,31.969,10.132,33.718,11.407z"/><path fill="#f55376" d="M18,25c-2.761,0-5,2.239-5,5c0,1.897,1.069,3.527,2.625,4.375C15.239,33.665,15,32.864,15,32 c0-2.761,2.239-5,5-5c0.343,0,0.677,0.035,1,0.101v-7.05C20.669,20.023,20.338,20,20,20s-0.669,0.023-1,0.05v5.05 C18.677,25.035,18.343,25,18,25z"/><path fill="#3dd9eb" d="M36.257,13.783c0.867,0.541,1.819,0.908,2.806,1.131v-0.376v-0.002v-1.381 c-1.7,0.003-3.364-0.473-4.806-1.373c-0.186-0.116-0.361-0.247-0.538-0.376C34.406,12.351,35.263,13.163,36.257,13.783z"/><path fill="#3dd9eb" d="M19,20.05v-2C18.669,18.023,18.338,18,18,18c-6.627,0-12,5.373-12,12 c0,3.824,1.795,7.222,4.581,9.419C8.969,37.377,8,34.804,8,32C8,25.71,12.842,20.56,19,20.05z"/><path fill="#f55376" d="M39.062,14.914v4.733c-3.375,0-6.501-1.071-9.052-2.894L30.013,30l-0.014-0.018 C29.999,29.988,30,29.994,30,30c0,6.627-5.373,12-12,12c-2.804,0-5.377-0.969-7.419-2.581C12.778,42.205,16.176,44,20,44 c6.627,0,12-5.373,12-12c0-0.006-0.001-0.012-0.001-0.018L32.013,32l-0.002-13.248c2.551,1.823,5.677,2.894,9.052,2.894v-5.108 v-0.002v-1.381C40.385,15.157,39.717,15.061,39.062,14.914z"/><path fill="#2100c4" d="M30,30c0-0.006-0.001-0.012-0.001-0.018L30.013,30l-0.002-13.248 c2.551,1.823,5.677,2.894,9.052,2.894v-4.733c-0.987-0.223-1.939-0.59-2.806-1.131c-0.994-0.62-1.851-1.432-2.538-2.376 c-1.75-1.275-3.019-3.155-3.51-5.337H25V30v1v1c0,2.761-2.239,5-5,5c-1.897,0-3.527-1.069-4.375-2.625 C14.069,33.527,13,31.897,13,30c0-2.761,2.239-5,5-5c0.343,0,0.677,0.035,1,0.101v-5.05C12.842,20.56,8,25.71,8,32 c0,2.804,0.969,5.377,2.581,7.419C12.623,41.031,15.196,42,18,42C24.627,42,30,36.627,30,30z"/></svg>